<?xml version="1.0" standalone="no"?>
<svg xmlns:xlink="http://www.w3.org/1999/xlink" id="wave" style="transform:rotate(180deg); transition: 0.3s" viewBox="0 0 1440 130" version="1.1" xmlns="http://www.w3.org/2000/svg"><defs><linearGradient id="sw-gradient-0" x1="0" x2="0" y1="1" y2="0"><stop stop-color="rgba(255, 249, 234, 1)" offset="0%"/><stop stop-color="rgba(255, 249, 234, 1)" offset="100%"/></linearGradient></defs><path style="transform:translate(0, 0px); opacity:1" fill="url(#sw-gradient-0)" d="M0,26L60,36.8C120,48,240,69,360,78C480,87,600,82,720,71.5C840,61,960,43,1080,47.7C1200,52,1320,78,1440,91C1560,104,1680,104,1800,99.7C1920,95,2040,87,2160,73.7C2280,61,2400,43,2520,32.5C2640,22,2760,17,2880,26C3000,35,3120,56,3240,65C3360,74,3480,69,3600,71.5C3720,74,3840,82,3960,78C4080,74,4200,56,4320,43.3C4440,30,4560,22,4680,32.5C4800,43,4920,74,5040,84.5C5160,95,5280,87,5400,73.7C5520,61,5640,43,5760,30.3C5880,17,6000,9,6120,10.8C6240,13,6360,26,6480,39C6600,52,6720,65,6840,65C6960,65,7080,52,7200,47.7C7320,43,7440,48,7560,56.3C7680,65,7800,78,7920,78C8040,78,8160,65,8280,49.8C8400,35,8520,17,8580,8.7L8640,0L8640,130L8580,130C8520,130,8400,130,8280,130C8160,130,8040,130,7920,130C7800,130,7680,130,7560,130C7440,130,7320,130,7200,130C7080,130,6960,130,6840,130C6720,130,6600,130,6480,130C6360,130,6240,130,6120,130C6000,130,5880,130,5760,130C5640,130,5520,130,5400,130C5280,130,5160,130,5040,130C4920,130,4800,130,4680,130C4560,130,4440,130,4320,130C4200,130,4080,130,3960,130C3840,130,3720,130,3600,130C3480,130,3360,130,3240,130C3120,130,3000,130,2880,130C2760,130,2640,130,2520,130C2400,130,2280,130,2160,130C2040,130,1920,130,1800,130C1680,130,1560,130,1440,130C1320,130,1200,130,1080,130C960,130,840,130,720,130C600,130,480,130,360,130C240,130,120,130,60,130L0,130Z"/></svg>